<svg xmlns="http://www.w3.org/2000/svg" viewBox="0 0 256 256" width="256" height="256" aria-labelledby="title desc" role="img">
        <title id="title">Chatting app illustration</title>
        <desc id="desc">Two overlapping chat bubbles, user avatar, and notification badge</desc>


        <defs>
          <linearGradient id="gBubbleA" x1="0" x2="1">
            <stop offset="0" stop-color="#6EE7B7" />
            <stop offset="1" stop-color="#3B82F6" />
          </linearGradient>

          <linearGradient id="gBubbleB" x1="0" x2="1">
            <stop offset="0" stop-color="#FDE68A" />
            <stop offset="1" stop-color="#FB7185" />
          </linearGradient>

          <filter id="shadow" x="-50%" y="-50%" width="200%" height="200%">
            <feDropShadow dx="0" dy="6" stdDeviation="10" flood-color="#0f172a" flood-opacity="0.12" />
          </filter>
        </defs>


        <rect x="0" y="0" width="256" height="256" rx="32" fill="#0f172a" />


        <g transform="translate(24,28)" filter="url(#shadow)">

          <path d="M16 96c0-26 21-47 47-47h72c26 0 47 21 47 47 0 12-4 23-11 31-2 2-4 4-6 6l-8 8c-2 2-4 4-6 4-4 0-6-3-6-6 0-1 0-2 1-3l3-8c1-3 1-6 1-9 0-26-21-47-47-47H63c-12 0-23 4-31 11-7 6-12 15-14 24-1 4-4 6-7 6-3 0-6-3-6-6 0-7 3-14 8-20 1-2 2-4 3-6z"
            fill="url(#gBubbleA)" />


          <path d="M146 36c18 0 34 12 39 29 1 3 0 6-2 9-2 3-4 4-7 4-4 0-6-3-6-6 0-8-6-15-14-15h-72c-18 0-34 12-39 29-1 3 0 6 2 9 2 3 4 4 7 4 4 0 6-3 6-6 0-8 6-15 14-15h72z"
            transform="translate(8,64) scale(0.9)"
            fill="url(#gBubbleB)" />


          <g transform="translate(42,78)" fill="#ffffff" opacity="0.95">
            <circle cx="14" cy="0" r="6" />
            <circle cx="34" cy="0" r="6" />
            <circle cx="54" cy="0" r="6" />
          </g>


          <g transform="translate(120,92)" fill="#fff" opacity="0.95">
            <rect x="-36" y="-18" width="64" height="6" rx="3" />
            <rect x="-36" y="-6" width="48" height="6" rx="3" />
          </g>


          <g transform="translate(16,16)">
            <circle cx="20" cy="20" r="20" fill="#111827" />
            <circle cx="20" cy="16" r="7" fill="#fff" opacity="0.92" />
            <rect x="8" y="26" rx="6" ry="6" width="24" height="10" fill="#fff" opacity="0.92" />
          </g>


          <g transform="translate(170,6)">
            <circle cx="12" cy="12" r="12" fill="#ef4444" />
            <text x="12" y="16" text-anchor="middle" font-size="12" font-family="Inter, Arial, sans-serif" fill="#fff" font-weight="700">3</text>
          </g>
        </g>
      </svg>